<svg width="96" height="55" viewBox="0 0 96 55" fill="none" xmlns="http://www.w3.org/2000/svg">
<path fill-rule="evenodd" clip-rule="evenodd" d="M18.7099 11.5938L16.5556 18.9813H27.6359L0.344727 54.8913L7.52686 29.7542H0.754882L7.32145 0H42.0002L33.2794 11.5938H18.7099Z" fill="#5E5E5E"/>
<path fill-rule="evenodd" clip-rule="evenodd" d="M47.9221 16.7671C49.1842 16.7671 50.0929 16.9691 50.8503 17.3224L50.4212 20.074C49.992 19.872 49.3862 19.7205 48.6289 19.7205C47.3415 19.7205 46.2308 20.1749 46.0036 21.639L45.8269 22.674H49.5124L49.058 25.6274H45.3473L43.9084 34.7907H40.3996L41.8638 25.6274H39.7686L40.2482 22.674H42.3181L42.5453 21.2856C43.1006 17.7263 45.6502 16.7671 47.9221 16.7671Z" fill="#5E5E5E"/>
<path fill-rule="evenodd" clip-rule="evenodd" d="M63.1868 22.6738L61.2683 34.7905H58.1886L58.441 33.2254C57.4061 34.4118 55.942 35.1439 54.2507 35.1439C51.1206 35.1439 49.5303 32.8721 49.9846 30.0448L51.1458 22.6738H54.6294L53.5187 29.8176C53.241 31.4584 54.0488 32.1147 55.3109 32.1147C56.6741 32.1147 57.81 31.307 58.4663 30.4992L59.7032 22.6738H63.1868Z" fill="#5E5E5E"/>
<path fill-rule="evenodd" clip-rule="evenodd" d="M69.3514 40.6983C67.231 40.6983 65.4388 40.1935 64.1514 39.4614L64.631 36.5079C65.8427 37.341 67.332 37.7448 69.0234 37.7448C71.1942 37.7448 73.1127 36.8613 73.4914 34.5137L73.668 33.403C73.0117 34.2108 71.699 35.1448 69.5534 35.1448C65.7164 35.1448 63.9747 31.939 64.53 28.5058C65.0349 25.3252 67.5592 22.3213 71.2699 22.3213C73.3146 22.3213 74.6525 23.2048 75.4098 24.5932L75.7379 22.6747H78.8681L77.0001 34.5642C76.2934 39.007 72.9107 40.6983 69.3514 40.6983ZM70.5308 32.191C72.1716 32.191 73.4843 31.2065 74.1658 30.1211L74.6454 27.1677C74.3425 26.1327 73.358 25.2744 71.9444 25.2744C69.8492 25.2744 68.3347 26.7638 68.0065 28.8337C67.7288 30.6007 68.6123 32.191 70.5308 32.191Z" fill="#5E5E5E"/>
<path fill-rule="evenodd" clip-rule="evenodd" d="M79.957 34.7905L81.8755 22.6738H85.3843L83.4659 34.7905H79.957ZM84.1009 20.6799C82.9397 20.6799 82.0057 19.9479 82.2329 18.4585C82.4349 17.1963 83.3941 16.6663 84.429 16.6663C85.6155 16.6663 86.5243 17.4235 86.297 18.8877C86.0951 20.1498 85.1359 20.6799 84.1009 20.6799Z" fill="#5E5E5E"/>
<path fill-rule="evenodd" clip-rule="evenodd" d="M91.813 35.1448C87.976 35.1448 86.2342 31.939 86.7895 28.5058C87.2944 25.3252 89.7682 22.3213 93.5294 22.3213C95.7509 22.3213 97.0635 23.5077 97.6945 24.6942L98.0228 22.6747H101.102L99.1839 34.7914H96.1043L96.3819 32.9992C95.4479 34.1856 93.9586 35.1448 91.813 35.1448ZM92.7985 32.1908C94.4392 32.1908 95.7519 31.1558 96.4334 30.0703L96.9131 27.2432C96.6354 26.1577 95.6509 25.2742 94.2121 25.2742C92.1169 25.2742 90.6023 26.814 90.2741 28.8082C89.9965 30.6005 90.88 32.1908 92.7985 32.1908Z" fill="#5E5E5E"/>
</svg>
