<svg width="130" height="36" viewBox="0 0 130 36" fill="none" xmlns="http://www.w3.org/2000/svg">
<path fill-rule="evenodd" clip-rule="evenodd" d="M1.5782 31.7711C2.80752 33.9023 5.01029 35.1746 7.47059 35.1746H7.47062C10.2607 35.1746 12.8617 33.6742 14.2586 31.259L17.5269 25.6084H1.25335C0.361992 27.5944 0.470216 29.8502 1.5782 31.7711Z" fill="#5E5E5E"/>
<path fill-rule="evenodd" clip-rule="evenodd" d="M28.8766 31.2535C30.2729 33.6719 32.875 35.1743 35.6676 35.1743H35.6692C38.1298 35.1743 40.3332 33.9022 41.5634 31.7713C42.6721 29.851 42.7816 27.5948 41.892 25.6082H25.6172L28.8766 31.2535Z" fill="#5E5E5E"/>
<path fill-rule="evenodd" clip-rule="evenodd" d="M40.455 23.036L34.6109 12.9167H8.54138L2.69727 23.036H40.455Z" fill="#5E5E5E"/>
<path fill-rule="evenodd" clip-rule="evenodd" d="M21.8889 0.367432H21.2678C17.8881 0.367432 14.7387 2.18548 13.0484 5.11205L10.0234 10.3451H33.1241L30.1077 5.11101C28.4181 2.18548 25.2686 0.367432 21.8889 0.367432Z" fill="#5E5E5E"/>
<path fill-rule="evenodd" clip-rule="evenodd" d="M53.1104 21.6707C53.1104 19.6483 54.0055 18.1564 55.6963 17.4934C56.4589 17.195 57.785 17.0292 59.6747 17.0292H60.6693C61.4982 17.0292 62.2276 17.0624 62.8906 17.1287V15.2389C62.8906 12.8187 61.6639 11.9899 58.8791 11.9899C57.7187 11.9899 56.5915 12.1556 55.4642 12.4872C54.967 12.6198 54.7017 12.6198 54.6023 12.222L54.4365 11.5257C54.3039 11.1279 54.4033 10.8958 54.8012 10.7964C56.2268 10.3654 57.6524 10.1333 59.0448 10.1333C63.2885 10.1333 65.0456 11.5589 65.0456 15.0069V26.3453C65.0456 26.6106 64.9793 26.6769 64.6809 26.6769H63.5869C63.2885 26.6769 63.1559 26.5774 63.1559 26.3453L63.0895 25.2181H63.0232C62.2939 26.3785 61.1335 26.9753 59.509 26.9753H57.8513C56.3925 26.9753 55.0664 26.5443 54.3039 25.7817C53.5082 24.9861 53.1104 23.9583 53.1104 22.6653V21.6707ZM55.3003 22.3997C55.3003 23.4275 55.5324 24.1237 55.9965 24.5547C56.4275 24.9525 57.0906 25.1515 58.0189 25.1515H59.3782C61.5995 25.1515 62.8924 23.958 62.8924 21.7035V18.9517C62.362 18.8855 61.6989 18.8523 60.9032 18.8523H59.0466C57.6542 18.8523 56.6928 19.0844 56.1291 19.5154C55.5655 19.9464 55.3003 20.6757 55.3003 21.7035V22.3997Z" fill="#5E5E5E"/>
<path fill-rule="evenodd" clip-rule="evenodd" d="M69.5586 4.59787C69.5586 4.3658 69.6912 4.23315 69.9564 4.23315H71.3157C71.5809 4.23315 71.7135 4.3658 71.7135 4.59787V22.335C71.7135 23.5285 71.7467 23.9264 72.0119 24.4237C72.1777 24.6557 72.5756 24.7883 73.2055 24.7883H74.1006C74.2995 24.7883 74.4985 24.8215 74.4985 25.153V26.2803C74.4985 26.5455 74.399 26.6781 74.1669 26.6781H72.9071C71.7135 26.6781 70.8515 26.4129 70.3543 25.9156C69.8238 25.352 69.5586 24.3242 69.5586 22.8654V4.59787Z" fill="#5E5E5E"/>
<path fill-rule="evenodd" clip-rule="evenodd" d="M77.7441 6.05653C77.7441 4.99562 78.3409 4.49829 79.2693 4.49829H79.4018C80.3633 4.49829 80.8606 5.02875 80.8606 6.05653V6.25544C80.8606 7.31635 80.297 7.8468 79.4018 7.8468H79.2693C78.1752 7.8468 77.7441 7.34951 77.7441 6.25544V6.05653ZM78.2422 10.7978C78.2422 10.5657 78.3748 10.4331 78.64 10.4331H79.9993C80.2646 10.4331 80.3972 10.5657 80.3972 10.7978V26.4131C80.3972 26.5789 80.2977 26.6783 80.0988 26.6783H78.5074C78.3416 26.6783 78.2422 26.5789 78.2422 26.4131V10.7978Z" fill="#5E5E5E"/>
<path fill-rule="evenodd" clip-rule="evenodd" d="M84.6104 17.9582C84.6104 12.0901 86.5664 10.134 90.9758 10.134C93.0977 10.134 94.5895 10.7971 95.4847 12.1232H95.551L95.7167 10.8302C95.7499 10.565 95.9156 10.4324 96.214 10.4324H97.0097C97.3744 10.4324 97.4739 10.4987 97.4739 10.8634V32.1811C97.4739 32.4132 97.3744 32.5458 97.1424 32.5458H95.6504C95.4184 32.5458 95.3189 32.4132 95.3189 32.1811V25.2189H95.2526C94.3243 26.3792 92.8656 26.976 90.8763 26.976C86.3675 26.976 84.6104 24.821 84.6104 19.5165V17.9582ZM86.8037 19.35C86.8037 21.6045 87.1684 23.1627 87.8978 23.9915C88.594 24.7872 89.5222 25.1188 91.1468 25.1188C93.799 25.1188 95.3241 23.7595 95.3241 21.1404V16.2336C95.3241 13.5482 93.799 11.99 91.0142 11.99C89.5554 11.99 88.6934 12.2884 88.0304 12.9846C87.2015 13.8797 86.8037 15.6369 86.8037 18.256V19.35Z" fill="#5E5E5E"/>
<path fill-rule="evenodd" clip-rule="evenodd" d="M101.785 10.9628C101.785 10.6644 101.984 10.4324 102.249 10.4324H103.476C103.774 10.4324 103.94 10.5981 103.94 10.8965V21.7377C103.94 23.0638 104.172 23.7932 104.802 24.3237C105.366 24.8541 106.36 25.1194 107.786 25.1194C109.145 25.1194 110.173 24.8209 110.836 24.191C111.4 23.6606 111.599 23.0638 111.599 21.7377V10.8633C111.599 10.5981 111.764 10.4324 111.996 10.4324H113.389C113.621 10.4324 113.754 10.565 113.754 10.8633V22.0029C113.754 23.6937 113.256 24.9536 112.295 25.7824C111.333 26.6112 110.04 26.976 107.786 26.976C105.73 26.976 104.239 26.5781 103.277 25.7824C102.282 24.9536 101.785 23.6937 101.785 22.0029V10.9628Z" fill="#5E5E5E"/>
<path fill-rule="evenodd" clip-rule="evenodd" d="M117.201 21.6719C117.201 19.6496 118.096 18.1577 119.787 17.4946C120.55 17.1962 121.876 17.0304 123.766 17.0304H124.76C125.589 17.0304 126.318 17.0636 126.981 17.1299V15.2401C126.981 12.82 125.755 11.9911 122.97 11.9911C121.809 11.9911 120.682 12.1569 119.555 12.4884C119.058 12.621 118.793 12.621 118.693 12.2232L118.527 11.527C118.395 11.1291 118.494 10.897 118.892 10.7976C120.318 10.3666 121.743 10.1345 123.136 10.1345C127.379 10.1345 129.136 11.5601 129.136 15.0081V26.3466C129.136 26.6118 129.07 26.6781 128.772 26.6781H127.678C127.379 26.6781 127.247 26.5787 127.247 26.3466L127.18 25.2194H127.114C126.385 26.3797 125.224 26.9765 123.6 26.9765H121.942C120.483 26.9765 119.157 26.5455 118.395 25.7829C117.599 24.9873 117.201 23.9595 117.201 22.6665V21.6719ZM119.394 22.4009C119.394 23.4287 119.626 24.1249 120.09 24.5559C120.521 24.9538 121.184 25.1527 122.112 25.1527H123.472C125.693 25.1527 126.986 23.9592 126.986 21.7047V18.953C126.455 18.8867 125.792 18.8535 124.997 18.8535H123.14C121.748 18.8535 120.786 19.0856 120.222 19.5166C119.659 19.9476 119.394 20.677 119.394 21.7047V22.4009Z" fill="#5E5E5E"/>
</svg>
