<svg width="130" height="35" viewBox="0 0 130 35" fill="none" xmlns="http://www.w3.org/2000/svg">
<path fill-rule="evenodd" clip-rule="evenodd" d="M33.7844 25.0818C30.9554 30.4326 25.3308 34.0869 18.8689 34.0869H2.44434V25.0818H33.7844Z" fill="#5E5E5E"/>
<path fill-rule="evenodd" clip-rule="evenodd" d="M33.7866 9.37231H0.996094V0.367188H18.8715C25.3334 0.367188 30.9575 4.0215 33.7866 9.37231Z" fill="#5E5E5E"/>
<path fill-rule="evenodd" clip-rule="evenodd" d="M35.5213 17.2269C35.5213 18.6287 35.3377 20.0318 34.9742 21.4135H4.82422V13.0403H34.9742C35.3377 14.4215 35.5213 15.8246 35.5213 17.2269Z" fill="#5E5E5E"/>
<path fill-rule="evenodd" clip-rule="evenodd" d="M57.4154 8.33423V23.0678H55.0125L54.8439 21.6345C54.0429 22.878 52.7571 23.2996 51.4925 23.2996C48.4362 23.2996 46.1387 21.2761 46.1387 17.8615C46.1387 14.2782 48.394 12.4234 51.4292 12.4234C52.5253 12.4234 54.2326 13.0136 54.8439 14.0885V8.33423H57.4154ZM48.7139 17.8617C48.7139 19.6743 50.0207 20.918 51.6648 20.918C53.2878 20.918 54.679 19.7376 54.679 17.8617C54.679 16.0489 53.2878 14.8264 51.6648 14.8264C50.0207 14.8264 48.7139 15.9857 48.7139 17.8617Z" fill="#5E5E5E"/>
<path fill-rule="evenodd" clip-rule="evenodd" d="M70.1282 12.6746L63.7837 27.4081H60.9593L62.8985 22.8974L58.7461 12.6746H61.7392L63.32 17.1642L64.3107 20.094L65.3857 17.2274L67.2827 12.6746H70.1282Z" fill="#5E5E5E"/>
<path fill-rule="evenodd" clip-rule="evenodd" d="M79.1325 23.0669V17.6288C79.1325 16.0479 78.2683 14.8465 76.6243 14.8465C75.0434 14.8465 73.9684 16.1744 73.9684 17.7553V23.0669H71.418V12.6544H73.7155L73.8841 14.0666C74.938 13.0338 75.9919 12.5068 77.2988 12.5068C79.7438 12.5068 81.704 14.3406 81.704 17.6077V23.0669H79.1325Z" fill="#5E5E5E"/>
<path fill-rule="evenodd" clip-rule="evenodd" d="M92.1563 12.6757H94.6224V23.0672H92.1985L92.072 21.5496C91.4818 22.7721 89.8588 23.3622 88.6995 23.3834C85.6221 23.4044 83.3457 21.5074 83.3457 17.8609C83.3457 14.2777 85.7275 12.4017 88.7627 12.4228C90.1539 12.4228 91.4818 13.0762 92.072 14.109L92.1563 12.6757ZM85.921 17.8606C85.921 19.8419 87.291 21.0223 88.9983 21.0223C93.0453 21.0223 93.0453 14.72 88.9983 14.72C87.291 14.72 85.921 15.8793 85.921 17.8606Z" fill="#5E5E5E"/>
<path fill-rule="evenodd" clip-rule="evenodd" d="M103.907 23.0658V17.5012C103.907 16.1311 103.19 14.8875 101.778 14.8875C100.387 14.8875 99.5647 16.1311 99.5647 17.5012V23.0658H96.9932V12.6532H99.375L99.5647 13.9179C100.113 12.864 101.314 12.4846 102.305 12.4846C103.548 12.4846 104.792 12.9905 105.382 14.4238C106.31 12.9483 107.511 12.5268 108.86 12.5268C111.811 12.5268 113.265 14.3395 113.265 17.459V23.0658H110.694V17.459C110.694 16.089 110.125 14.9297 108.734 14.9297C107.342 14.9297 106.478 16.1311 106.478 17.5012V23.0658H103.907Z" fill="#5E5E5E"/>
<path fill-rule="evenodd" clip-rule="evenodd" d="M118.48 9.74546C118.48 11.7479 115.444 11.7479 115.444 9.74546C115.444 7.74305 118.48 7.74305 118.48 9.74546ZM115.684 23.0664H118.255V12.6328H115.684V23.0664Z" fill="#5E5E5E"/>
<path fill-rule="evenodd" clip-rule="evenodd" d="M129.482 21.7388C128.281 22.9192 127.016 23.3829 125.477 23.3829C122.463 23.3829 119.955 21.5701 119.955 17.8815C119.955 14.1929 122.463 12.3801 125.477 12.3801C126.953 12.3801 128.091 12.8017 129.229 13.9188L127.606 15.6261C126.995 15.0781 126.236 14.8041 125.52 14.8041C123.791 14.8041 122.527 16.0688 122.527 17.8815C122.527 19.8628 123.876 20.9167 125.477 20.9167C126.3 20.9167 127.122 20.6849 127.754 20.0525L129.482 21.7388Z" fill="#5E5E5E"/>
</svg>
