<svg width="137" height="53" viewBox="0 0 137 53" fill="none" xmlns="http://www.w3.org/2000/svg">
<path fill-rule="evenodd" clip-rule="evenodd" d="M2.77513 41.1797L20.5491 51.4416C22.2664 52.433 24.3821 52.433 26.0994 51.4416L43.8734 41.1797C45.5906 40.1883 46.6485 38.356 46.6485 36.3731V15.8494C46.6485 13.8665 45.5906 12.0342 43.8734 11.0427L26.0994 0.780967C24.3821 -0.210518 22.2664 -0.210518 20.5491 0.780967L2.77513 11.0427C1.05784 12.0342 0 13.8665 0 15.8494V36.3731C0 38.356 1.05784 40.1883 2.77513 41.1797ZM27.4283 30.6476C23.5958 34.111 24.1109 36.7498 26.6358 39.5437H26.6289C27.3456 40.3346 27.786 41.3806 27.786 42.5321C27.786 44.9938 25.7905 46.9893 23.3289 46.9893C20.8673 46.9893 18.8717 44.9938 18.8717 42.5321C18.8717 41.3806 19.3121 40.3346 20.0288 39.5437H20.022C22.5469 36.7498 23.062 34.111 19.2295 30.6476H19.2399C17.9993 29.5286 17.2149 27.9137 17.2149 26.1114C17.2149 24.3092 17.9993 22.6943 19.2399 21.5753H19.2295C23.062 18.1118 22.5469 15.4731 20.022 12.6792H20.0288C19.3121 11.8883 18.8717 10.8423 18.8717 9.69078C18.8717 7.22918 20.8673 5.23364 23.3289 5.23364C25.7905 5.23364 27.786 7.22918 27.786 9.69078C27.786 10.8423 27.3456 11.8883 26.6289 12.6792H26.6358C24.1109 15.4731 23.5958 18.1118 27.4283 21.5753H27.4179C28.6585 22.6943 29.4429 24.3092 29.4429 26.1114C29.4429 27.9137 28.6585 29.5286 27.4179 30.6476H27.4283ZM14.4076 30.5592C13.0724 29.0818 12.3087 27.6467 12.4432 26.1111C12.3087 24.5756 13.0724 23.1405 14.4076 21.6631H14.4007C15.1174 20.8721 15.5578 19.8262 15.5578 18.6747C15.5578 16.2131 13.5623 14.2175 11.1007 14.2175C8.63905 14.2175 6.64355 16.2131 6.64355 18.6747C6.64355 19.8262 7.08399 20.8721 7.80064 21.6631H7.79381C9.12897 23.1405 9.89267 24.5756 9.75815 26.1111C9.89267 27.6467 9.12897 29.0818 7.79381 30.5592H7.80064C7.08399 31.3501 6.64355 32.3961 6.64355 33.5476C6.64355 36.0092 8.63905 38.0048 11.1007 38.0048C13.5623 38.0048 15.5578 36.0092 15.5578 33.5476C15.5578 32.3961 15.1174 31.3501 14.4007 30.5592H14.4076ZM36.8916 26.1111C36.757 27.6467 37.5207 29.0818 38.8559 30.5592H38.849C39.5658 31.3501 40.0061 32.3961 40.0061 33.5476C40.0061 36.0092 38.0106 38.0048 35.549 38.0048C33.0874 38.0048 31.0919 36.0092 31.0919 33.5476C31.0919 32.3961 31.5323 31.3501 32.249 30.5592H32.2421C33.5773 29.0818 34.341 27.6467 34.2065 26.1111C34.341 24.5756 33.5773 23.1405 32.2421 21.6631H32.249C31.5323 20.8721 31.0919 19.8262 31.0919 18.6747C31.0919 16.2131 33.0874 14.2175 35.549 14.2175C38.0106 14.2175 40.0061 16.2131 40.0061 18.6747C40.0061 19.8262 39.5658 20.8721 38.849 21.6631H38.8559C37.5207 23.1405 36.757 24.5756 36.8916 26.1111Z" fill="#5E5E5E"/>
<path fill-rule="evenodd" clip-rule="evenodd" d="M61.5766 16.436V29.6902C61.5766 30.5657 61.9171 31.0764 62.6223 31.0764C63.1087 31.0764 63.5465 30.9062 63.9842 30.6873L64.1545 33.3868C63.5708 33.6299 62.4764 33.9461 61.2848 33.9461C59.3879 33.9461 58.1719 33.022 58.1719 30.5171V16.436H61.5766Z" fill="#5E5E5E"/>
<path fill-rule="evenodd" clip-rule="evenodd" d="M78.4362 29.7872C78.4362 30.5168 78.6308 31.0761 79.3117 31.0761C79.7981 31.0761 80.1872 30.9059 80.6006 30.687L80.7465 33.3865C80.1142 33.6783 79.0685 33.9458 77.9741 33.9458C76.5393 33.9458 75.6395 33.3622 75.2746 32.0976C74.3992 33.119 72.9886 33.9215 71.2376 33.9215C67.687 33.9215 65.2793 31.1978 65.2793 27.3796C65.2793 23.5128 67.687 20.7646 71.2376 20.7646C72.8913 20.7646 74.1803 21.2267 75.0315 22.0779V20.9835H78.4362V29.7872ZM75.0269 24.8752C74.4432 24.2672 73.3245 23.7322 72.1815 23.7322C70.0657 23.7322 68.7281 25.1914 68.7281 27.3802C68.7281 29.5203 70.09 30.9794 72.1815 30.9794C73.3002 30.9794 74.3459 30.4687 75.0269 29.8364V24.8752Z" fill="#5E5E5E"/>
<path fill-rule="evenodd" clip-rule="evenodd" d="M90.0423 33.9461C88.3156 33.9461 87.0753 33.4111 86.2241 32.5599V33.7029H82.8193V16.436H86.2241V22.0538C87.0996 21.2756 88.4128 20.7649 90.0423 20.7649C93.6172 20.7649 96.0249 23.4887 96.0249 27.3312C96.0249 31.1737 93.6172 33.9461 90.0423 33.9461ZM89.0881 23.7322C87.9451 23.7322 86.875 24.2672 86.2184 24.9238V29.8121C86.8021 30.3958 87.8965 30.9794 89.0881 30.9794C91.1796 30.9794 92.5415 29.5203 92.5415 27.3315C92.5415 25.167 91.1796 23.7322 89.0881 23.7322Z" fill="#5E5E5E"/>
<path fill-rule="evenodd" clip-rule="evenodd" d="M104.501 20.6426C108.489 20.6426 111.359 23.5123 111.359 27.3791C111.359 31.1973 108.489 34.0426 104.501 34.0426C100.561 34.0426 97.6914 31.1973 97.6914 27.3791C97.6914 23.5123 100.561 20.6426 104.501 20.6426ZM104.494 30.9289C106.634 30.9289 108.069 29.3725 108.069 27.3783C108.069 25.3354 106.634 23.7546 104.494 23.7546C102.402 23.7546 100.967 25.3354 100.967 27.3783C100.967 29.3725 102.402 30.9289 104.494 30.9289Z" fill="#5E5E5E"/>
<path fill-rule="evenodd" clip-rule="evenodd" d="M114.837 24.924C114.837 24.1701 114.666 23.6351 113.961 23.6351C113.45 23.6351 112.867 23.8783 112.672 23.9999L112.526 21.3247C112.697 21.1545 113.961 20.7654 115.299 20.7654C116.758 20.7654 117.706 21.3491 118.071 22.6866C118.679 21.4949 119.603 20.7654 121.257 20.7654C122.449 20.7654 123.373 21.2031 123.543 21.4949L123.057 24.5592C122.862 24.2917 121.889 23.9026 120.722 23.9026C119.093 23.9026 118.46 25.3131 118.241 26.7966V33.7034H114.837V24.924Z" fill="#5E5E5E"/>
<path fill-rule="evenodd" clip-rule="evenodd" d="M136.673 32.3159C135.36 33.386 133.487 34.0426 131.323 34.0426C126.532 34.0426 124.392 31.1243 124.392 27.3791C124.392 23.5852 127.018 20.6426 131.104 20.6426C134.971 20.6426 136.795 23.0016 136.795 25.9442C136.795 26.7224 136.673 27.9384 136.527 28.4248H127.894C128.21 30.2002 129.353 31.1973 131.42 31.1973C133.025 31.1973 134.509 30.5406 135.384 29.884L136.673 32.3159ZM133.539 25.3603C133.539 24.3389 132.761 23.4634 131.034 23.4634C129.21 23.4634 128.237 24.5578 127.994 25.798H133.515C133.539 25.6765 133.539 25.4819 133.539 25.3603Z" fill="#5E5E5E"/>
</svg>
