<svg width="22" height="16" viewBox="0 0 22 16" fill="none" xmlns="http://www.w3.org/2000/svg">
<path d="M2.78201 0.999954C1.79405 0.999954 1.0002 1.81248 1.0002 2.80466V13.1875C1.0002 14.1796 1.79405 15 2.78201 15H19.582C20.57 15 21.3638 14.1796 21.3638 13.1875V2.80466C21.3638 1.81248 20.57 0.999954 19.582 0.999954H2.78201ZM2.78201 1.49995H19.582C19.9001 1.49995 20.1865 1.62493 20.4093 1.82025L11.9854 9.67966C11.5188 10.1149 10.8618 10.1068 10.3945 9.67191L1.95474 1.82033C2.17757 1.625 2.46393 1.49995 2.78201 1.49995ZM1.65247 2.2265L7.9445 8.08591L1.83541 14.0703C1.63384 13.8389 1.50929 13.5279 1.50929 13.1875V2.80466C1.50929 2.59193 1.56745 2.40193 1.65247 2.2265ZM20.7116 2.2265C20.7966 2.40193 20.8547 2.59193 20.8547 2.80466V13.1875C20.8547 13.5279 20.7302 13.8389 20.5286 14.0703L14.4354 8.07808L20.7116 2.2265ZM14.0695 8.42183L20.115 14.375C19.9518 14.4526 19.7742 14.5 19.582 14.5H2.78201C2.58981 14.5 2.41224 14.4526 2.24905 14.375L8.31044 8.42966L10.0445 10.039C10.6928 10.6426 11.6875 10.6433 12.3354 10.039L14.0695 8.42183Z" fill="#BCCAD2"/>
<path fill-rule="evenodd" clip-rule="evenodd" d="M0.700195 2.80465C0.700195 1.65134 1.62385 0.699951 2.78201 0.699951H19.582C20.7402 0.699951 21.6638 1.65134 21.6638 2.80465V13.1875C21.6638 14.339 20.7418 15.3 19.582 15.3H2.78201C1.62219 15.3 0.700195 14.339 0.700195 13.1875V2.80465ZM2.44379 1.86555L10.5988 9.45226C10.9539 9.78269 11.4323 9.78527 11.7808 9.46026L19.9208 1.86573C19.8146 1.82322 19.7007 1.79995 19.582 1.79995H2.78201C2.66354 1.79995 2.54979 1.82315 2.44379 1.86555ZM1.80956 2.78273C1.80938 2.79002 1.80929 2.79732 1.80929 2.80465V13.1875C1.80929 13.3336 1.83853 13.472 1.89038 13.5965L7.51019 8.09139L1.80956 2.78273ZM14.8691 8.08385L20.4739 13.5957C20.5256 13.4714 20.5547 13.3333 20.5547 13.1875V2.80465C20.5547 2.79745 20.5547 2.79028 20.5545 2.78312L14.8691 8.08385ZM14.0639 8.8373L12.54 10.2584C11.7768 10.9702 10.6038 10.9692 9.84042 10.2589M9.84042 10.2589L8.31616 8.84426L2.85589 14.2H19.5097L14.0639 8.8373" fill="#BCCAD2"/>
</svg>
