<svg width="24" height="27" viewBox="0 0 24 27" fill="none" xmlns="http://www.w3.org/2000/svg">
<path d="M15.2525 13.0361H13.2901C13.2901 16.4405 13.2901 20.6309 13.2901 20.6309H10.3823C10.3823 20.6309 10.3823 16.4811 10.3823 13.0361H9V10.3519H10.3823V8.61568C10.3823 7.37221 10.9264 5.4292 13.3168 5.4292L15.4716 5.43817V8.0438C15.4716 8.0438 14.1622 8.0438 13.9077 8.0438C13.6531 8.0438 13.2911 8.18202 13.2911 8.775V10.3524H15.5066L15.2525 13.0361Z" fill="white"/>
<mask id="mask0_2_5294" style="mask-type:alpha" maskUnits="userSpaceOnUse" x="9" y="5" width="7" height="16">
<path d="M15.2525 13.0361H13.2901C13.2901 16.4405 13.2901 20.6309 13.2901 20.6309H10.3823C10.3823 20.6309 10.3823 16.4811 10.3823 13.0361H9V10.3519H10.3823V8.61568C10.3823 7.37221 10.9264 5.4292 13.3168 5.4292L15.4716 5.43817V8.0438C15.4716 8.0438 14.1622 8.0438 13.9077 8.0438C13.6531 8.0438 13.2911 8.18202 13.2911 8.775V10.3524H15.5066L15.2525 13.0361Z" fill="white"/>
</mask>
<g mask="url(#mask0_2_5294)">
<rect width="24" height="26.0601" fill="white"/>
</g>
</svg>
