<svg width="24" height="27" viewBox="0 0 24 27" fill="none" xmlns="http://www.w3.org/2000/svg">
<path fill-rule="evenodd" clip-rule="evenodd" d="M18.9995 17.6927V11.4697V8.36683C18.9995 6.74648 17.7859 5.4292 16.2936 5.4292H7.70541C6.21314 5.4292 5 6.74648 5 8.36683V11.4697V17.6927C5 19.3136 6.21314 20.6309 7.70541 20.6309H16.2941C17.7859 20.6309 18.9995 19.3136 18.9995 17.6927ZM14.4642 13.0293C14.4642 14.5048 13.3572 15.7047 11.9993 15.7047C10.6409 15.7047 9.53479 14.5043 9.53628 13.0287C9.53678 12.4462 9.71079 11.9085 10.0023 11.4692C10.451 10.7952 11.1783 10.3538 12.0007 10.3538C12.8227 10.3538 13.5505 10.7957 13.9982 11.4697C14.2887 11.909 14.4642 12.4468 14.4642 13.0293ZM17.3798 9.75624V7.51359V7.17983L17.071 7.1809L15.0066 7.1879L15.0145 9.76486L17.3798 9.75624ZM11.9998 17.1867C14.1112 17.1867 15.8286 15.3209 15.8286 13.0293C15.8286 12.478 15.7259 11.951 15.544 11.4697H17.6347V17.6927C17.6347 18.497 17.0323 19.1484 16.2931 19.1484H7.70491C6.96473 19.1484 6.36336 18.497 6.36336 17.6927V11.4697H8.45303C8.27257 11.951 8.17143 12.478 8.17143 13.0293C8.17143 15.3209 9.88828 17.1867 11.9998 17.1867Z" fill="white"/>
<mask id="mask0_2_5293" style="mask-type:alpha" maskUnits="userSpaceOnUse" x="5" y="5" width="14" height="16">
<path fill-rule="evenodd" clip-rule="evenodd" d="M18.9995 17.6927V11.4697V8.36683C18.9995 6.74648 17.7859 5.4292 16.2936 5.4292H7.70541C6.21314 5.4292 5 6.74648 5 8.36683V11.4697V17.6927C5 19.3136 6.21314 20.6309 7.70541 20.6309H16.2941C17.7859 20.6309 18.9995 19.3136 18.9995 17.6927ZM14.4642 13.0293C14.4642 14.5048 13.3572 15.7047 11.9993 15.7047C10.6409 15.7047 9.53479 14.5043 9.53628 13.0287C9.53678 12.4462 9.71079 11.9085 10.0023 11.4692C10.451 10.7952 11.1783 10.3538 12.0007 10.3538C12.8227 10.3538 13.5505 10.7957 13.9982 11.4697C14.2887 11.909 14.4642 12.4468 14.4642 13.0293ZM17.3798 9.75624V7.51359V7.17983L17.071 7.1809L15.0066 7.1879L15.0145 9.76486L17.3798 9.75624ZM11.9998 17.1867C14.1112 17.1867 15.8286 15.3209 15.8286 13.0293C15.8286 12.478 15.7259 11.951 15.544 11.4697H17.6347V17.6927C17.6347 18.497 17.0323 19.1484 16.2931 19.1484H7.70491C6.96473 19.1484 6.36336 18.497 6.36336 17.6927V11.4697H8.45303C8.27257 11.951 8.17143 12.478 8.17143 13.0293C8.17143 15.3209 9.88828 17.1867 11.9998 17.1867Z" fill="white"/>
</mask>
<g mask="url(#mask0_2_5293)">
<rect width="24" height="26.0601" fill="white"/>
</g>
</svg>
