<svg width="24" height="27" viewBox="0 0 24 27" fill="none" xmlns="http://www.w3.org/2000/svg">
<path fill-rule="evenodd" clip-rule="evenodd" d="M18.5076 7.13606L18.4704 7.10913C17.7014 6.31458 16.7961 5.9375 15.7543 5.99137L15.7171 5.91057L15.7419 5.8971C16.6844 5.66816 17.2426 5.42576 17.4162 5.15642C17.4658 4.94094 17.4038 4.81974 17.1929 4.79281C16.7217 4.86014 16.2752 4.96788 15.8907 5.14295C16.3868 4.79281 16.5728 4.5504 16.4612 4.4292C15.9775 4.44267 15.4442 4.71201 14.8985 5.25069C15.0969 4.87361 15.1838 4.65814 15.1341 4.6312C14.8613 4.81974 14.638 5.03521 14.4396 5.26415C14.0179 5.7759 13.6831 6.24724 13.4226 6.67819L13.4102 6.70512C12.7529 7.87675 12.2816 9.04838 12.0087 10.2469L11.9095 10.3412L11.8847 10.3547C11.4878 9.81599 11.0041 9.35812 10.4336 8.99451C9.7639 8.5097 8.97015 8.06529 8.05237 7.62088C7.06018 7.05526 6.04318 6.59738 5.02619 6.23378C5.01378 7.48621 5.58429 8.4693 6.68811 9.19651V9.20998C6.30363 9.20998 5.91916 9.27732 5.54709 9.39852C5.6215 10.5567 6.37805 11.3512 7.80432 11.7822L7.79192 11.8091C7.23381 11.7687 6.77492 11.9842 6.41526 12.4286C6.88655 13.4251 7.71751 13.8965 8.92054 13.8696C8.68489 14.0042 8.49886 14.1389 8.37484 14.3005C8.15159 14.5564 8.07718 14.8526 8.15159 15.1893C8.41204 15.7011 8.87093 15.93 9.55306 15.8896L9.59027 15.9435L9.57787 15.9704C8.39964 17.2902 6.97336 17.8827 5.31144 17.7615L5.28664 17.775C4.26964 17.7615 3.17823 17.2363 2 16.1859C3.17823 18.0309 4.75333 19.3641 6.70051 20.2125C8.92054 21.0071 11.153 21.0744 13.373 20.3876H13.4102C15.5682 19.7142 17.3914 18.3137 18.9045 16.2128C19.599 15.122 20.0331 14.0716 20.2067 13.0615C21.3353 13.1019 22.1415 12.7518 22.65 11.9976L22.6376 11.9707C22.2531 12.1188 21.5214 12.0784 20.4424 11.836V11.7014C21.633 11.5532 22.3399 11.1358 22.5632 10.4489C21.7322 10.7991 20.9137 10.8126 20.1075 10.4759C19.9587 9.26385 19.4254 8.14609 18.5076 7.13606" fill="white"/>
<mask id="mask0_2_5295" style="mask-type:alpha" maskUnits="userSpaceOnUse" x="2" y="4" width="21" height="17">
<path fill-rule="evenodd" clip-rule="evenodd" d="M18.5076 7.13606L18.4704 7.10913C17.7014 6.31458 16.7961 5.9375 15.7543 5.99137L15.7171 5.91057L15.7419 5.8971C16.6844 5.66816 17.2426 5.42576 17.4162 5.15642C17.4658 4.94094 17.4038 4.81974 17.1929 4.79281C16.7217 4.86014 16.2752 4.96788 15.8907 5.14295C16.3868 4.79281 16.5728 4.5504 16.4612 4.4292C15.9775 4.44267 15.4442 4.71201 14.8985 5.25069C15.0969 4.87361 15.1838 4.65814 15.1341 4.6312C14.8613 4.81974 14.638 5.03521 14.4396 5.26415C14.0179 5.7759 13.6831 6.24724 13.4226 6.67819L13.4102 6.70512C12.7529 7.87675 12.2816 9.04838 12.0087 10.2469L11.9095 10.3412L11.8847 10.3547C11.4878 9.81599 11.0041 9.35812 10.4336 8.99451C9.7639 8.5097 8.97015 8.06529 8.05237 7.62088C7.06018 7.05526 6.04318 6.59738 5.02619 6.23378C5.01378 7.48621 5.58429 8.4693 6.68811 9.19651V9.20998C6.30363 9.20998 5.91916 9.27732 5.54709 9.39852C5.6215 10.5567 6.37805 11.3512 7.80432 11.7822L7.79192 11.8091C7.23381 11.7687 6.77492 11.9842 6.41526 12.4286C6.88655 13.4251 7.71751 13.8965 8.92054 13.8696C8.68489 14.0042 8.49886 14.1389 8.37484 14.3005C8.15159 14.5564 8.07718 14.8526 8.15159 15.1893C8.41204 15.7011 8.87093 15.93 9.55306 15.8896L9.59027 15.9435L9.57787 15.9704C8.39964 17.2902 6.97336 17.8827 5.31144 17.7615L5.28664 17.775C4.26964 17.7615 3.17823 17.2363 2 16.1859C3.17823 18.0309 4.75333 19.3641 6.70051 20.2125C8.92054 21.0071 11.153 21.0744 13.373 20.3876H13.4102C15.5682 19.7142 17.3914 18.3137 18.9045 16.2128C19.599 15.122 20.0331 14.0716 20.2067 13.0615C21.3353 13.1019 22.1415 12.7518 22.65 11.9976L22.6376 11.9707C22.2531 12.1188 21.5214 12.0784 20.4424 11.836V11.7014C21.633 11.5532 22.3399 11.1358 22.5632 10.4489C21.7322 10.7991 20.9137 10.8126 20.1075 10.4759C19.9587 9.26385 19.4254 8.14609 18.5076 7.13606" fill="white"/>
</mask>
<g mask="url(#mask0_2_5295)">
<rect y="0.0858154" width="24" height="26.0601" fill="white"/>
</g>
</svg>
