<svg width="16" height="11" viewBox="0 0 16 11" fill="none" xmlns="http://www.w3.org/2000/svg">
<path d="M1.4 0C0.62374 0 0 0.638415 0 1.41798V9.57589C0 10.3554 0.62374 11 1.4 11H14.6C15.3763 11 16 10.3554 16 9.57589V1.41798C16 0.638415 15.3763 0 14.6 0H1.4ZM1.4 0.392857H14.6C14.8499 0.392857 15.0749 0.49105 15.25 0.644519L8.63124 6.81977C8.26458 7.16171 7.74838 7.15538 7.38124 6.81368L0.75 0.644579C0.92508 0.49111 1.15008 0.392857 1.4 0.392857ZM0.5125 0.963716L5.45624 5.56753L0.65624 10.2695C0.49786 10.0877 0.4 9.84341 0.4 9.57589V1.41798C0.4 1.25084 0.4457 1.10155 0.5125 0.963716ZM15.4875 0.963716C15.5543 1.10155 15.6 1.25084 15.6 1.41798V9.57589C15.6 9.84341 15.5021 10.0877 15.3438 10.2695L10.5562 5.56138L15.4875 0.963716ZM10.2688 5.83147L15.0188 10.5089C14.8905 10.5699 14.751 10.6071 14.6 10.6071H1.4C1.24898 10.6071 1.10946 10.5699 0.98124 10.5089L5.74376 5.83762L7.10624 7.10211C7.61564 7.57633 8.39716 7.57688 8.90624 7.10211L10.2688 5.83147Z" fill="black"/>
</svg>
