<svg width="14" height="14" viewBox="0 0 14 14" fill="none" xmlns="http://www.w3.org/2000/svg">
<path d="M8.79257 8.9869H5.17626C2.44843 8.9869 0.219409 11.0502 0.00118308 13.6638C-0.0144045 13.8472 0.125884 14 0.312934 14C0.46881 14 0.609098 13.8777 0.624686 13.7249C0.811736 11.4017 2.77577 9.59825 5.17626 9.59825H8.80816C11.2086 9.59825 13.1727 11.417 13.3753 13.7096C13.3909 13.8624 13.5156 13.9847 13.6871 13.9847C13.8741 13.9847 14.0144 13.8319 13.9988 13.6485C13.765 11.0349 11.5204 8.9869 8.79257 8.9869ZM6.98441 7.13755C8.99521 7.13755 10.6163 5.53275 10.6163 3.57642C10.6163 1.62009 8.99521 0 6.98441 0C4.97362 0 3.35251 1.6048 3.35251 3.57642C3.35251 5.54803 4.97362 7.13755 6.98441 7.13755ZM6.98441 0.611354C8.65228 0.611354 9.99281 1.94105 9.99281 3.56114C9.99281 5.19651 8.63669 6.51092 6.98441 6.51092C5.33213 6.51092 3.97601 5.19651 3.97601 3.57642C3.97601 1.94105 5.31654 0.611354 6.98441 0.611354Z" fill="black"/>
</svg>
