<svg width="15" height="15" viewBox="0 0 15 15" fill="none" xmlns="http://www.w3.org/2000/svg">
<path d="M13.6648 14.2957C13.5546 14.3939 13.4482 14.4888 13.3517 14.581C13.0642 14.8552 12.5752 15 11.9372 15C10.0632 15 6.91465 13.7803 4.10272 11.0528C2.41349 9.38337 1.11661 7.43618 0.450919 5.56994C-0.159238 3.8591 -0.149581 2.46862 0.47627 1.85023C0.602509 1.72532 0.740649 1.56872 0.887066 1.40275C1.4379 0.777716 2.12359 0 3.00416 0C3.56172 0 4.10376 0.318993 4.61544 0.948118C6.3445 3.07286 6.10996 3.62122 4.93431 4.76496C4.86878 4.82869 4.80031 4.89532 4.72943 4.96535C4.4366 5.25486 5.1642 6.83228 6.7691 8.41838C7.93405 9.56945 9.31596 10.4375 9.98354 10.4375C10.1386 10.4375 10.1884 10.3887 10.2048 10.3727C10.2783 10.301 10.3493 10.2286 10.4192 10.1577C10.8436 9.72622 11.2825 9.28011 11.9466 9.28011C12.544 9.28011 13.2189 9.65431 14.0703 10.4578C14.7041 11.056 15.0081 11.6339 14.9998 12.2243C14.9872 13.1152 14.254 13.7697 13.6648 14.2957ZM13.5938 10.9506C12.8888 10.2851 12.35 9.96155 11.9466 9.96155C11.5921 9.96155 11.3232 10.2165 10.914 10.6326C10.841 10.7069 10.7667 10.7824 10.6899 10.8574C10.5678 10.9766 10.3461 11.1191 9.98354 11.1191C8.97725 11.1191 7.39909 10.0047 6.28139 8.90028C5.54206 8.16977 4.87757 7.32542 4.45798 6.58366C3.90094 5.59874 3.82817 4.89208 4.24172 4.48328C4.31398 4.41188 4.38365 4.34406 4.45057 4.27914C5.39202 3.36323 5.56155 3.19828 4.07789 1.37515C3.70365 0.91489 3.34235 0.681609 3.00416 0.681609C2.43746 0.681609 1.89025 1.30255 1.4072 1.8504C1.25285 2.0254 1.10712 2.19069 0.963983 2.3323C0.630448 2.66168 0.531112 3.74459 1.10143 5.34347C1.73349 7.11566 2.9726 8.97202 4.58836 10.5689C7.25905 13.159 10.2036 14.3184 11.9373 14.3184C12.5659 14.3184 12.8008 14.1591 12.8726 14.0906C12.9743 13.9934 13.0864 13.8934 13.2025 13.7898C13.7176 13.3297 14.3017 12.8085 14.31 12.2146C14.3153 11.8297 14.0744 11.4043 13.5938 10.9506Z" fill="#464646"/>
</svg>
