<svg width="16" height="11" fill="none" xmlns="http://www.w3.org/2000/svg"><path d="M1.4 0C.624 0 0 .638 0 1.418v8.158C0 10.356.624 11 1.4 11h13.2c.776 0 1.4-.645 1.4-1.424V1.418A1.41 1.41 0 0 0 14.6 0H1.4Zm0 .393h13.2a.98.98 0 0 1 .65.252L8.631 6.82c-.366.342-.883.335-1.25-.006L.75.644a.984.984 0 0 1 .65-.25Zm-.887.57 4.943 4.605-4.8 4.702A1.055 1.055 0 0 1 .4 9.576V1.418c0-.167.046-.316.112-.454Zm14.975 0c.066.139.112.288.112.455v8.158c0 .267-.098.512-.256.694l-4.788-4.71L15.488.964Zm-5.22 4.868 4.75 4.678a.967.967 0 0 1-.418.098H1.4a.967.967 0 0 1-.419-.098l4.763-4.671 1.362 1.264c.51.474 1.291.475 1.8 0l1.363-1.27Z" fill="#000"/></svg>