<svg width="22" height="16" fill="none" xmlns="http://www.w3.org/2000/svg"><path d="M2.782 1C1.794 1 1 1.812 1 2.805v10.383C1 14.18 1.794 15 2.782 15h16.8c.988 0 1.782-.82 1.782-1.813V2.806c0-.993-.794-1.805-1.782-1.805h-16.8Zm0 .5h16.8c.318 0 .604.125.827.32l-8.424 7.86c-.466.435-1.123.427-1.59-.008L1.955 1.82c.223-.195.509-.32.827-.32Zm-1.13.727 6.292 5.859-6.109 5.984a1.343 1.343 0 0 1-.326-.883V2.806c0-.213.058-.403.143-.579Zm19.06 0c.085.175.143.365.143.578v10.383c0 .34-.125.65-.326.882l-6.094-5.992 6.277-5.851Zm-6.643 6.195 6.046 5.953c-.163.078-.34.125-.533.125h-16.8a1.23 1.23 0 0 1-.533-.125L8.31 8.43l1.734 1.609a1.675 1.675 0 0 0 2.291 0l1.734-1.617Z" fill="#BCCAD2"/><path fill-rule="evenodd" clip-rule="evenodd" d="M.7 2.805C.7 1.65 1.624.7 2.782.7h16.8c1.158 0 2.082.951 2.082 2.105v10.383c0 1.151-.922 2.112-2.082 2.112h-16.8C1.622 15.3.7 14.339.7 13.187V2.806Zm1.744-.94 8.155 7.587c.355.33.833.333 1.182.008l8.14-7.594a.908.908 0 0 0-.339-.066h-16.8a.907.907 0 0 0-.338.066Zm-.634.918v10.405c0 .146.029.284.08.409L7.51 8.09l-5.7-5.308Zm13.06 5.3 5.604 5.513c.052-.125.08-.263.08-.409V2.784l-5.685 5.3Zm-.806.754-1.524 1.421a1.975 1.975 0 0 1-2.7 0m0 0L8.316 8.845 2.856 14.2H19.51l-5.446-5.363" fill="#BCCAD2"/></svg>