<svg width="24" height="27" fill="none" xmlns="http://www.w3.org/2000/svg"><path d="M15.252 13.036H13.29v7.595h-2.908v-7.595H9v-2.684h1.382V8.616c0-1.244.544-3.187 2.935-3.187l2.155.01v2.605h-1.564c-.255 0-.617.138-.617.731v1.577h2.216l-.255 2.684Z" fill="#fff"/><mask id="a" style="mask-type:alpha" maskUnits="userSpaceOnUse" x="9" y="5" width="7" height="16"><path d="M15.252 13.036H13.29v7.595h-2.908v-7.595H9v-2.684h1.382V8.616c0-1.244.544-3.187 2.935-3.187l2.155.01v2.605h-1.564c-.255 0-.617.138-.617.731v1.577h2.216l-.255 2.684Z" fill="#fff"/></mask><g mask="url(#a)"><path fill="#fff" d="M0 0h24v26.06H0z"/></g></svg>