<svg width="169" height="32" fill="none" xmlns="http://www.w3.org/2000/svg"><path d="M17.327 13.61h-4.563V9.935h4.576a2.737 2.737 0 0 0 1.943-.809 2.761 2.761 0 0 0 .805-1.951 2.772 2.772 0 0 0-.805-1.952 2.747 2.747 0 0 0-1.943-.808h-4.576V.74h4.576a6.39 6.39 0 0 1 4.53 1.885 6.45 6.45 0 0 1 1.876 4.55 6.45 6.45 0 0 1-1.876 4.55 6.39 6.39 0 0 1-4.53 1.885" fill="#333"/><path d="M32.885 20.967a11.072 11.072 0 0 1-3.22 7.798A10.969 10.969 0 0 1 21.903 32H7.443V20.54h3.658v7.785h10.802a7.3 7.3 0 0 0 5.174-2.153 7.368 7.368 0 0 0 2.143-5.198c0-1.95-.77-3.82-2.143-5.198a7.3 7.3 0 0 0-5.174-2.153h-1.869a7.005 7.005 0 0 0 3.619-3.535 10.983 10.983 0 0 1 6.608 3.742 11.077 11.077 0 0 1 2.624 7.15" fill="#333"/><path d="M10.642 5.097v3.849H7.237v3.421H3.406V8.946H0v-3.85h3.406v-3.42h3.83v3.42h3.406Z" fill="#00B4DC"/><path d="M54.65 11.799v19.566h-3.81v-12.69l-5.481 9.084h-.446l-5.48-9.056v12.662h-3.84V11.8h3.95l5.593 9.252 5.565-9.252h3.95Zm16.512 0v3.69h-5.259v15.876h-3.84V15.488h-5.23v-3.69h14.329Zm23.473 9.056v1.51c0 2.795-.89 5.059-2.67 6.792-1.782 1.733-4.082 2.6-6.901 2.6-3.005 0-5.5-.979-7.484-2.936-1.967-1.975-2.95-4.379-2.95-7.211 0-2.851.974-5.265 2.922-7.24 1.966-1.975 4.396-2.963 7.29-2.963 1.817 0 3.477.42 4.98 1.258 1.502.82 2.67 1.92 3.505 3.298l-3.283 1.901c-.463-.801-1.168-1.453-2.114-1.957-.928-.503-1.966-.754-3.117-.754-1.854 0-3.385.615-4.59 1.845-1.187 1.21-1.781 2.748-1.781 4.612 0 1.845.603 3.373 1.809 4.584 1.224 1.193 2.837 1.789 4.84 1.789 1.485 0 2.709-.326 3.673-.978.984-.671 1.651-1.584 2.004-2.74h-5.899v-3.41h9.766Zm13.415 10.51-3.923-6.792h-2.921v6.792h-3.84V11.8h7.791c1.799 0 3.329.633 4.591 1.9 1.261 1.267 1.892 2.795 1.892 4.584 0 1.212-.344 2.34-1.03 3.383a6.482 6.482 0 0 1-2.727 2.32l4.313 7.38h-4.146Zm-6.844-15.96v5.786h3.951c.723 0 1.344-.28 1.864-.84.519-.577.779-1.266.779-2.068 0-.8-.26-1.481-.779-2.04-.52-.56-1.141-.839-1.864-.839h-3.951Zm29.421 13.417c-1.966 1.956-4.359 2.934-7.178 2.934s-5.212-.978-7.178-2.934c-1.948-1.976-2.922-4.389-2.922-7.24s.974-5.255 2.922-7.212c1.966-1.975 4.359-2.963 7.178-2.963s5.212.988 7.178 2.963c1.967 1.957 2.95 4.36 2.95 7.212 0 2.851-.983 5.264-2.95 7.24Zm-11.658-2.628c1.206 1.193 2.699 1.789 4.48 1.789 1.781 0 3.274-.596 4.48-1.789 1.205-1.211 1.808-2.749 1.808-4.612 0-1.864-.603-3.401-1.808-4.612-1.206-1.212-2.699-1.817-4.48-1.817-1.781 0-3.274.605-4.48 1.817-1.205 1.21-1.808 2.748-1.808 4.612 0 1.863.603 3.4 1.808 4.612Zm24.432 5.562c-2.17 0-3.951-.614-5.342-1.844-1.391-1.23-2.086-2.88-2.086-4.948V11.8h3.811v12.858c0 1.024.288 1.835.863 2.431.593.597 1.512.895 2.754.895 1.243 0 2.152-.298 2.727-.895.594-.596.89-1.407.89-2.431V11.799h3.84v13.165c0 2.069-.696 3.718-2.087 4.948-1.391 1.23-3.181 1.845-5.37 1.845Zm18.178-19.957c1.873 0 3.45.633 4.73 1.9 1.28 1.267 1.92 2.823 1.92 4.668 0 1.845-.64 3.401-1.92 4.668-1.28 1.267-2.857 1.901-4.73 1.901h-3.422v6.43h-3.84V11.798h7.262Zm0 9.531c.816 0 1.493-.28 2.031-.838.538-.578.807-1.286.807-2.125 0-.857-.269-1.565-.807-2.124-.538-.56-1.215-.839-2.031-.839h-3.422v5.926h3.422ZM37.568 7.853 35.013.207h1.63l1.86 5.876L40.35.207h1.641l-2.566 7.646h-1.858Zm5.58-6.116a.859.859 0 0 1-.859-.863c0-.233.084-.437.25-.612A.833.833 0 0 1 43.15 0a.81.81 0 0 1 .608.262.84.84 0 0 1 .261.612.84.84 0 0 1-.26.611.827.827 0 0 1-.61.252Zm-.695 6.116V2.392h1.402v5.46h-1.402Zm5.795-4.107h-1.229v2.272c0 .189.047.327.142.415.094.087.231.138.413.153.18.007.406.003.674-.011v1.278c-.964.109-1.645.018-2.044-.273-.391-.292-.587-.812-.587-1.562V3.746h-.946V2.392h.946V1.289l1.402-.426v1.529h1.229v1.354Zm4.95-1.354H54.6v5.46h-1.402v-.644c-.42.532-1.011.797-1.772.797-.725 0-1.348-.276-1.87-.83-.515-.56-.772-1.245-.772-2.053 0-.808.257-1.489.772-2.042.522-.56 1.145-.841 1.87-.841.76 0 1.351.266 1.772.797v-.644ZM50.61 6.236c.283.284.642.426 1.077.426.434 0 .793-.142 1.076-.426.29-.291.435-.662.435-1.114 0-.451-.145-.819-.435-1.103-.283-.291-.642-.437-1.076-.437-.435 0-.794.146-1.077.437-.282.284-.424.652-.424 1.103 0 .452.142.823.424 1.114Zm10.643 1.769c-.754 0-1.388-.167-1.903-.502a2.742 2.742 0 0 1-1.087-1.387l1.283-.754c.297.78.88 1.169 1.75 1.169.42 0 .729-.076.924-.23a.705.705 0 0 0 .294-.578.69.69 0 0 0-.359-.623c-.24-.153-.667-.316-1.283-.491a8.38 8.38 0 0 1-.87-.306 4.151 4.151 0 0 1-.706-.404 1.732 1.732 0 0 1-.533-.655 2.136 2.136 0 0 1-.185-.918c0-.691.243-1.241.729-1.649C59.8.262 60.39.055 61.079.055c.616 0 1.156.153 1.62.458a2.99 2.99 0 0 1 1.098 1.256l-1.261.732c-.305-.655-.79-.983-1.457-.983-.312 0-.558.073-.74.219a.664.664 0 0 0-.26.546c0 .24.097.436.293.59.203.145.587.305 1.153.48.231.073.405.13.521.175.123.036.287.098.49.185.21.08.37.157.478.23a3.2 3.2 0 0 1 .391.295c.145.123.254.25.326.382.08.13.145.291.196.48.058.182.087.383.087.601 0 .706-.257 1.267-.772 1.682-.507.415-1.17.622-1.99.622Zm7.954-5.613h1.402v5.46h-1.402v-.644c-.42.532-1.011.797-1.772.797-.725 0-1.348-.276-1.87-.83-.514-.56-.772-1.245-.772-2.053 0-.808.257-1.489.772-2.042.522-.56 1.145-.841 1.87-.841.76 0 1.352.266 1.772.797v-.644ZM66.62 6.236c.282.284.64.426 1.076.426.435 0 .793-.142 1.076-.426.29-.291.435-.662.435-1.114 0-.451-.145-.819-.435-1.103-.283-.291-.641-.437-1.076-.437-.435 0-.794.146-1.076.437-.283.284-.425.652-.425 1.103 0 .452.142.823.425 1.114Zm8.283-3.997c.594 0 1.083.2 1.468.6.39.401.587.954.587 1.66v3.354h-1.403V4.674c0-.364-.098-.64-.293-.83-.196-.196-.457-.295-.783-.295-.362 0-.652.113-.87.339-.217.226-.326.564-.326 1.016v2.949h-1.402V2.392h1.402v.611c.34-.51.88-.764 1.62-.764Zm3.947-.502a.858.858 0 0 1-.859-.863.86.86 0 0 1 .251-.612.832.832 0 0 1 .609-.262.81.81 0 0 1 .609.262.84.84 0 0 1 .26.612.84.84 0 0 1-.26.611.827.827 0 0 1-.61.252Zm-.695 6.116V2.392h1.402v5.46h-1.402Zm5.795-4.107h-1.228v2.272c0 .189.047.327.14.415.095.087.233.138.414.153.181.007.406.003.674-.011v1.278c-.964.109-1.645.018-2.044-.273-.391-.292-.587-.812-.587-1.562V3.746h-.946V2.392h.946V1.289l1.403-.426v1.529h1.228v1.354Zm4.95-1.354h1.402v5.46H88.9v-.644c-.42.532-1.011.797-1.772.797-.725 0-1.348-.276-1.87-.83-.514-.56-.772-1.245-.772-2.053 0-.808.257-1.489.772-2.042.522-.56 1.145-.841 1.87-.841.76 0 1.352.266 1.772.797v-.644Zm-2.587 3.844c.282.284.641.426 1.076.426.435 0 .793-.142 1.076-.426.29-.291.435-.662.435-1.114 0-.451-.145-.819-.435-1.103-.283-.291-.641-.437-1.076-.437-.435 0-.794.146-1.076.437-.283.284-.424.652-.424 1.103 0 .452.14.823.424 1.114Zm6.512-2.293c0 .145.094.265.283.36.195.087.43.168.706.24.276.066.551.153.827.262.275.102.507.277.695.525.196.247.294.557.294.928 0 .56-.21.994-.63 1.3-.414.298-.932.447-1.555.447-1.116 0-1.877-.433-2.283-1.3l1.217-.687c.16.473.515.71 1.066.71.5 0 .75-.157.75-.47 0-.146-.098-.262-.294-.35a3.633 3.633 0 0 0-.695-.25 7.306 7.306 0 0 1-.827-.274 1.757 1.757 0 0 1-.706-.513c-.189-.24-.283-.539-.283-.896 0-.538.196-.96.587-1.266.399-.314.891-.47 1.479-.47.442 0 .844.102 1.206.306.363.196.649.48.86.852l-1.197.655c-.174-.371-.464-.557-.87-.557a.82.82 0 0 0-.456.12.378.378 0 0 0-.174.328ZM102.39.208c1.043 0 1.913.367 2.609 1.103.703.735 1.054 1.641 1.054 2.719 0 1.078-.351 1.984-1.054 2.72-.696.735-1.566 1.103-2.609 1.103h-3.022V.208h3.022Zm0 6.203c.659 0 1.196-.219 1.609-.655.413-.445.619-1.02.619-1.726s-.206-1.278-.619-1.715c-.413-.444-.95-.666-1.609-.666h-1.522v4.762h1.522Zm9.293.764c-.558.554-1.239.83-2.043.83-.805 0-1.486-.276-2.044-.83-.551-.56-.826-1.245-.826-2.053 0-.808.275-1.489.826-2.042.558-.56 1.239-.841 2.044-.841.804 0 1.485.28 2.043.84.558.554.837 1.235.837 2.043s-.279 1.493-.837 2.053Zm-3.098-.972c.283.284.634.426 1.055.426.42 0 .771-.142 1.054-.426.283-.284.424-.644.424-1.08 0-.438-.141-.798-.424-1.082a1.428 1.428 0 0 0-1.054-.426c-.421 0-.772.142-1.055.426-.275.284-.413.644-.413 1.081 0 .437.138.797.413 1.081Zm7.509 1.802c-.819 0-1.504-.276-2.054-.83-.544-.553-.816-1.237-.816-2.053 0-.815.272-1.5.816-2.053.55-.553 1.235-.83 2.054-.83.529 0 1.011.127 1.446.382.435.255.765.597.989 1.027l-1.206.71a1.23 1.23 0 0 0-.5-.535 1.406 1.406 0 0 0-.74-.197c-.42 0-.768.142-1.043.426-.276.277-.413.633-.413 1.07 0 .43.137.787.413 1.07.275.277.623.415 1.043.415.283 0 .533-.061.75-.185a1.23 1.23 0 0 0 .501-.535l1.217.699c-.239.43-.576.775-1.011 1.037a2.808 2.808 0 0 1-1.446.382Zm6.308-4.259h-1.229v2.272c0 .189.048.327.142.415.094.087.232.138.413.153.181.007.406.003.674-.011v1.278c-.964.109-1.645.018-2.044-.273-.391-.292-.587-.812-.587-1.562V3.746h-.946V2.392h.946V1.289l1.402-.426v1.529h1.229v1.354Zm5.45 3.429c-.558.554-1.239.83-2.044.83-.804 0-1.486-.276-2.044-.83-.55-.56-.826-1.245-.826-2.053 0-.808.276-1.489.826-2.042.558-.56 1.24-.841 2.044-.841.805 0 1.486.28 2.044.84.558.554.837 1.235.837 2.043s-.279 1.493-.837 2.053Zm-3.098-.972c.282.284.634.426 1.054.426.42 0 .772-.142 1.055-.426.282-.284.424-.644.424-1.08 0-.438-.142-.798-.424-1.082a1.43 1.43 0 0 0-1.055-.426c-.42 0-.772.142-1.054.426-.276.284-.414.644-.414 1.081 0 .437.138.797.414 1.081Zm6.324-2.872c.13-.35.344-.612.641-.786a1.998 1.998 0 0 1 1.011-.262v1.572a1.665 1.665 0 0 0-1.152.262c-.333.226-.5.601-.5 1.125v2.61h-1.403v-5.46h1.403v.939Zm6.06-.939h1.402v5.46h-1.402v-.611c-.341.51-.881.764-1.62.764-.594 0-1.087-.2-1.478-.6-.385-.4-.577-.954-.577-1.66V2.392h1.403V5.57c0 .364.098.644.293.84.196.19.457.285.783.285.362 0 .652-.113.87-.339.217-.225.326-.564.326-1.015V2.39Zm8.698-.153c.623 0 1.12.204 1.49.611.376.408.565.954.565 1.639v3.364h-1.403V4.587c0-.328-.079-.582-.239-.764-.159-.183-.384-.274-.674-.274-.319 0-.569.106-.75.317-.174.211-.261.517-.261.918v3.069h-1.402V4.587c0-.328-.08-.582-.239-.764-.16-.183-.384-.274-.674-.274-.312 0-.562.106-.75.317-.181.211-.272.517-.272.918v3.069h-1.402V2.392h1.402v.579c.326-.488.83-.732 1.511-.732.667 0 1.16.262 1.478.786.363-.524.903-.786 1.62-.786Z" fill="#333"/></svg>