<svg width="24" height="27" fill="none" xmlns="http://www.w3.org/2000/svg"><path fill-rule="evenodd" clip-rule="evenodd" d="M19 17.693V8.367c0-1.62-1.214-2.938-2.706-2.938H7.705C6.213 5.43 5 6.746 5 8.367v9.326c0 1.62 1.213 2.938 2.705 2.938h8.59c1.49 0 2.704-1.317 2.704-2.938Zm-4.536-4.664c0 1.476-1.107 2.676-2.465 2.676-1.358 0-2.464-1.2-2.463-2.676 0-.583.175-1.12.466-1.56.449-.674 1.176-1.115 1.999-1.115.822 0 1.55.442 1.997 1.116.29.439.466.977.466 1.56Zm2.916-3.273V7.18h-.309l-2.064.008.008 2.577 2.365-.009ZM12 17.186c2.111 0 3.829-1.865 3.829-4.157a4.41 4.41 0 0 0-.285-1.56h2.09v6.224c0 .804-.602 1.455-1.34 1.455h-8.59c-.74 0-1.34-.651-1.34-1.455V11.47h2.089a4.44 4.44 0 0 0-.282 1.56c0 2.29 1.717 4.157 3.829 4.157Z" fill="#fff"/><mask id="a" style="mask-type:alpha" maskUnits="userSpaceOnUse" x="5" y="5" width="14" height="16"><path fill-rule="evenodd" clip-rule="evenodd" d="M19 17.693V8.367c0-1.62-1.214-2.938-2.706-2.938H7.705C6.213 5.43 5 6.746 5 8.367v9.326c0 1.62 1.213 2.938 2.705 2.938h8.59c1.49 0 2.704-1.317 2.704-2.938Zm-4.536-4.664c0 1.476-1.107 2.676-2.465 2.676-1.358 0-2.464-1.2-2.463-2.676 0-.583.175-1.12.466-1.56.449-.674 1.176-1.115 1.999-1.115.822 0 1.55.442 1.997 1.116.29.439.466.977.466 1.56Zm2.916-3.273V7.18h-.309l-2.064.008.008 2.577 2.365-.009ZM12 17.186c2.111 0 3.829-1.865 3.829-4.157a4.41 4.41 0 0 0-.285-1.56h2.09v6.224c0 .804-.602 1.455-1.34 1.455h-8.59c-.74 0-1.34-.651-1.34-1.455V11.47h2.089a4.44 4.44 0 0 0-.282 1.56c0 2.29 1.717 4.157 3.829 4.157Z" fill="#fff"/></mask><g mask="url(#a)"><path fill="#fff" d="M0 0h24v26.06H0z"/></g></svg>