<svg width="130" height="35" fill="none" xmlns="http://www.w3.org/2000/svg"><path fill-rule="evenodd" clip-rule="evenodd" d="M33.784 25.082c-2.829 5.35-8.453 9.005-14.915 9.005H2.444v-9.005h31.34Zm.003-15.71H.997V.367h17.875c6.461 0 12.085 3.654 14.915 9.005Zm1.734 7.855c0 1.402-.183 2.805-.547 4.186H4.824V13.04h30.15a16.43 16.43 0 0 1 .547 4.187Zm21.894-8.893v14.734h-2.402l-.17-1.434c-.8 1.244-2.086 1.666-3.35 1.666-3.057 0-5.354-2.024-5.354-5.439 0-3.583 2.255-5.438 5.29-5.438 1.096 0 2.804.59 3.415 1.665V8.335h2.571Zm-8.701 9.528c0 1.812 1.307 3.056 2.95 3.056 1.624 0 3.015-1.18 3.015-3.056 0-1.813-1.391-3.036-3.014-3.036-1.644 0-2.951 1.16-2.951 3.036Zm21.414-5.187-6.344 14.733h-2.825l1.94-4.51-4.153-10.223h2.993l1.581 4.49.99 2.929 1.076-2.867 1.897-4.552h2.845Zm9.004 10.392v-5.438c0-1.581-.864-2.783-2.508-2.783-1.58 0-2.656 1.328-2.656 2.91v5.31h-2.55V12.655h2.297l.17 1.413c1.053-1.033 2.107-1.56 3.414-1.56 2.445 0 4.405 1.834 4.405 5.1v5.46h-2.572Zm13.024-10.391h2.466v10.391h-2.424l-.126-1.517c-.59 1.222-2.213 1.812-3.373 1.833-3.077.021-5.353-1.876-5.353-5.522 0-3.583 2.382-5.46 5.417-5.438 1.39 0 2.719.653 3.309 1.686l.084-1.433Zm-6.235 5.185c0 1.98 1.37 3.161 3.077 3.161 4.047 0 4.047-6.302 0-6.302-1.707 0-3.077 1.16-3.077 3.14Zm17.986 5.205V17.5c0-1.37-.717-2.614-2.129-2.614-1.391 0-2.213 1.244-2.213 2.614v5.565h-2.572V12.653h2.382l.19 1.265c.548-1.054 1.749-1.433 2.74-1.433 1.243 0 2.487.506 3.077 1.939.928-1.476 2.129-1.897 3.478-1.897 2.951 0 4.405 1.813 4.405 4.932v5.607h-2.571v-5.607c0-1.37-.569-2.53-1.96-2.53-1.392 0-2.256 1.202-2.256 2.572v5.565h-2.571ZM118.48 9.745c0 2.003-3.036 2.003-3.036 0 0-2.002 3.036-2.002 3.036 0Zm-2.796 13.321h2.571V12.633h-2.571v10.433Zm13.798-1.327c-1.201 1.18-2.466 1.644-4.005 1.644-3.014 0-5.522-1.813-5.522-5.502 0-3.688 2.508-5.5 5.522-5.5 1.476 0 2.614.42 3.752 1.538l-1.623 1.707a3.155 3.155 0 0 0-2.086-.822c-1.729 0-2.993 1.265-2.993 3.077 0 1.982 1.349 3.036 2.95 3.036.823 0 1.645-.232 2.277-.865l1.728 1.687Z" fill="#5E5E5E"/></svg>