<svg width="96" height="55" fill="none" xmlns="http://www.w3.org/2000/svg"><path fill-rule="evenodd" clip-rule="evenodd" d="m18.71 11.594-2.154 7.387h11.08L.345 54.891l7.182-25.137H.755L7.32 0H42l-8.722 11.594H18.71Zm29.212 5.173c1.262 0 2.17.202 2.928.555l-.429 2.752c-.429-.202-1.035-.354-1.792-.354-1.287 0-2.398.455-2.625 1.919l-.177 1.035h3.685l-.454 2.953h-3.71l-1.44 9.164H40.4l1.464-9.164h-2.095l.48-2.953h2.07l.226-1.388c.556-3.56 3.105-4.519 5.377-4.519Zm15.265 5.907L61.268 34.79h-3.08l.253-1.566c-1.035 1.187-2.499 1.919-4.19 1.919-3.13 0-4.72-2.272-4.266-5.1l1.16-7.37h3.484l-1.11 7.144c-.278 1.64.53 2.297 1.792 2.297 1.363 0 2.499-.808 3.155-1.616l1.237-7.825h3.484Zm6.164 18.024c-2.12 0-3.912-.505-5.2-1.237l.48-2.953c1.212.833 2.701 1.237 4.392 1.237 2.171 0 4.09-.884 4.468-3.231l.177-1.111c-.656.808-1.969 1.742-4.115 1.742-3.837 0-5.578-3.206-5.023-6.64.505-3.18 3.03-6.184 6.74-6.184 2.045 0 3.383.884 4.14 2.272l.328-1.918h3.13L77 34.565c-.707 4.442-4.09 6.133-7.649 6.133Zm1.18-8.507c1.64 0 2.953-.985 3.635-2.07l.48-2.953c-.303-1.035-1.288-1.894-2.702-1.894-2.095 0-3.61 1.49-3.938 3.56-.277 1.767.606 3.357 2.525 3.357Zm9.426 2.599 1.919-12.116h3.508L83.466 34.79h-3.509Zm4.144-14.11c-1.161 0-2.095-.732-1.868-2.221.202-1.263 1.161-1.793 2.196-1.793 1.186 0 2.095.758 1.868 2.222-.202 1.262-1.161 1.792-2.196 1.792Zm7.712 14.465c-3.837 0-5.579-3.206-5.023-6.64.504-3.18 2.978-6.184 6.74-6.184 2.22 0 3.534 1.187 4.165 2.373l.328-2.02h3.079l-1.918 12.117h-3.08L96.382 33c-.934 1.187-2.423 2.146-4.569 2.146Zm.986-2.954c1.64 0 2.953-1.035 3.634-2.12l.48-2.828c-.278-1.085-1.262-1.969-2.7-1.969-2.096 0-3.61 1.54-3.939 3.534-.278 1.793.606 3.383 2.525 3.383Z" fill="#5E5E5E"/></svg>