<svg width="137" height="53" fill="none" xmlns="http://www.w3.org/2000/svg"><path fill-rule="evenodd" clip-rule="evenodd" d="M2.775 41.18 20.55 51.442a5.55 5.55 0 0 0 5.55 0L43.873 41.18a5.55 5.55 0 0 0 2.776-4.807V15.85a5.55 5.55 0 0 0-2.776-4.806L26.1.78a5.55 5.55 0 0 0-5.55 0L2.775 11.043A5.55 5.55 0 0 0 0 15.849v20.524a5.55 5.55 0 0 0 2.775 4.807Zm24.653-10.532c-3.832 3.463-3.317 6.102-.792 8.896h-.007a4.435 4.435 0 0 1 1.157 2.988 4.457 4.457 0 1 1-8.914 0c0-1.151.44-2.197 1.157-2.988h-.007c2.525-2.794 3.04-5.433-.792-8.896h.01a6.091 6.091 0 0 1 0-9.073h-.01c3.832-3.463 3.317-6.102.792-8.896h.007a4.435 4.435 0 0 1-1.157-2.988 4.457 4.457 0 0 1 8.914 0c0 1.151-.44 2.197-1.157 2.988h.007c-2.525 2.794-3.04 5.433.792 8.896h-.01a6.091 6.091 0 0 1 0 9.073h.01Zm-13.02-.089c-1.336-1.477-2.1-2.912-1.965-4.448-.134-1.535.63-2.97 1.965-4.448H14.4a4.435 4.435 0 0 0 1.157-2.988 4.457 4.457 0 1 0-8.914 0c0 1.151.44 2.197 1.157 2.988h-.007c1.335 1.477 2.099 2.913 1.964 4.448.135 1.536-.629 2.97-1.964 4.448H7.8a4.435 4.435 0 0 0-1.157 2.989 4.457 4.457 0 1 0 8.914 0c0-1.152-.44-2.198-1.157-2.989h.007Zm22.484-4.448c-.135 1.536.629 2.97 1.964 4.448h-.007a4.435 4.435 0 0 1 1.157 2.989 4.457 4.457 0 1 1-8.914 0c0-1.152.44-2.198 1.157-2.989h-.007c1.335-1.477 2.099-2.912 1.965-4.448.134-1.535-.63-2.97-1.965-4.448h.007a4.435 4.435 0 0 1-1.157-2.988 4.457 4.457 0 1 1 8.914 0c0 1.151-.44 2.197-1.157 2.988h.007c-1.335 1.477-2.099 2.913-1.964 4.448Zm24.685-9.675V29.69c0 .876.34 1.386 1.045 1.386.487 0 .925-.17 1.362-.389l.17 2.7a7.938 7.938 0 0 1-2.87.56c-1.896 0-3.112-.925-3.112-3.43V16.436h3.405Zm16.859 13.351c0 .73.195 1.29.876 1.29.486 0 .875-.171 1.289-.39l.145 2.7c-.632.291-1.677.559-2.772.559-1.435 0-2.335-.584-2.7-1.848a5.289 5.289 0 0 1-4.036 1.824c-3.551 0-5.959-2.724-5.959-6.542 0-3.867 2.408-6.615 5.959-6.615 1.653 0 2.942.462 3.793 1.313v-1.095h3.405v8.804Zm-3.41-4.912c-.583-.608-1.701-1.143-2.844-1.143-2.116 0-3.454 1.46-3.454 3.648 0 2.14 1.362 3.6 3.454 3.6 1.118 0 2.164-.511 2.845-1.144v-4.96Zm15.016 9.071c-1.726 0-2.967-.535-3.818-1.386v1.143H82.82V16.436h3.405v5.618c.876-.778 2.189-1.29 3.818-1.29 3.575 0 5.983 2.725 5.983 6.567 0 3.843-2.408 6.615-5.983 6.615Zm-.954-10.214c-1.143 0-2.213.535-2.87 1.192v4.888c.584.584 1.678 1.167 2.87 1.167 2.092 0 3.454-1.459 3.454-3.648 0-2.164-1.362-3.599-3.454-3.599Zm15.413-3.089c3.988 0 6.858 2.87 6.858 6.736 0 3.818-2.87 6.664-6.858 6.664-3.94 0-6.81-2.846-6.81-6.664 0-3.867 2.87-6.736 6.81-6.736Zm-.007 10.286c2.14 0 3.575-1.556 3.575-3.55 0-2.044-1.435-3.624-3.575-3.624-2.092 0-3.527 1.58-3.527 3.623 0 1.994 1.435 3.55 3.527 3.55Zm10.343-6.005c0-.754-.171-1.289-.876-1.289-.511 0-1.094.243-1.289.365l-.146-2.675c.171-.17 1.435-.56 2.773-.56 1.459 0 2.407.584 2.772 1.922.608-1.192 1.532-1.922 3.186-1.922 1.192 0 2.116.438 2.286.73l-.486 3.064c-.195-.267-1.168-.656-2.335-.656-1.629 0-2.262 1.41-2.481 2.894v6.906h-3.404v-8.779Zm21.836 7.392c-1.313 1.07-3.186 1.727-5.35 1.727-4.791 0-6.931-2.919-6.931-6.664 0-3.794 2.626-6.736 6.712-6.736 3.867 0 5.691 2.359 5.691 5.301 0 .778-.122 1.994-.268 2.48h-8.633c.316 1.776 1.459 2.773 3.526 2.773 1.605 0 3.089-.656 3.964-1.313l1.289 2.432Zm-3.134-6.956c0-1.021-.778-1.897-2.505-1.897-1.824 0-2.797 1.095-3.04 2.335h5.521c.024-.121.024-.316.024-.438Z" fill="#5E5E5E"/></svg>