<svg width="130" height="36" fill="none" xmlns="http://www.w3.org/2000/svg"><path fill-rule="evenodd" clip-rule="evenodd" d="M1.578 31.771a6.733 6.733 0 0 0 5.893 3.404c2.79 0 5.39-1.5 6.788-3.916l3.268-5.65H1.253a6.722 6.722 0 0 0 .325 6.162Zm27.299-.518a7.863 7.863 0 0 0 6.79 3.921h.002a6.736 6.736 0 0 0 5.894-3.403 6.726 6.726 0 0 0 .329-6.163H25.617l3.26 5.645Zm11.578-8.217-5.844-10.12H8.54l-5.844 10.12h37.758ZM21.889.367h-.621a9.518 9.518 0 0 0-8.22 4.745l-3.025 5.233h23.101l-3.016-5.234a9.518 9.518 0 0 0-8.22-4.744ZM53.11 21.67c0-2.022.895-3.514 2.586-4.177.763-.298 2.089-.464 3.979-.464h.994c.83 0 1.559.033 2.222.1v-1.89c0-2.42-1.227-3.25-4.012-3.25-1.16 0-2.287.167-3.415.498-.497.133-.762.133-.862-.265l-.165-.696c-.133-.398-.034-.63.364-.73 1.426-.43 2.851-.663 4.244-.663 4.243 0 6 1.426 6 4.874v11.338c0 .266-.066.332-.364.332h-1.094c-.299 0-.431-.1-.431-.332l-.066-1.127h-.067c-.73 1.16-1.89 1.757-3.514 1.757h-1.658c-1.459 0-2.785-.43-3.547-1.193-.796-.796-1.194-1.824-1.194-3.117v-.994Zm2.19.73c0 1.027.232 1.724.697 2.155.43.398 1.094.596 2.022.596h1.36c2.22 0 3.513-1.193 3.513-3.448v-2.751c-.53-.067-1.193-.1-1.989-.1h-1.856c-1.393 0-2.354.232-2.918.663-.563.431-.829 1.16-.829 2.188v.697ZM69.559 4.598c0-.232.132-.365.397-.365h1.36c.265 0 .397.133.397.365v17.737c0 1.194.034 1.591.299 2.089.166.232.564.364 1.194.364h.895c.198 0 .398.034.398.365v1.127c0 .265-.1.398-.332.398h-1.26c-1.194 0-2.055-.265-2.553-.762-.53-.564-.795-1.592-.795-3.05V4.597Zm8.185 1.459c0-1.061.597-1.559 1.525-1.559h.133c.961 0 1.459.53 1.459 1.559v.198c0 1.061-.564 1.592-1.46 1.592h-.132c-1.094 0-1.525-.497-1.525-1.592v-.198Zm.498 4.74c0-.231.133-.364.398-.364H80c.265 0 .397.133.397.365v15.615c0 .166-.1.265-.298.265h-1.592c-.165 0-.265-.1-.265-.265V10.798Zm6.368 7.161c0-5.868 1.956-7.824 6.366-7.824 2.122 0 3.614.663 4.509 1.99h.066l.166-1.294c.033-.265.199-.398.497-.398h.796c.364 0 .464.067.464.431v21.318c0 .232-.1.365-.332.365H95.65c-.232 0-.331-.133-.331-.365V25.22h-.066c-.929 1.16-2.387 1.757-4.377 1.757-4.508 0-6.266-2.155-6.266-7.46v-1.558Zm2.194 1.392c0 2.255.364 3.813 1.094 4.641.696.796 1.624 1.128 3.249 1.128 2.652 0 4.177-1.36 4.177-3.979v-4.906c0-2.686-1.525-4.244-4.31-4.244-1.459 0-2.32.298-2.984.995-.829.895-1.226 2.652-1.226 5.271v1.094Zm14.981-8.387c0-.299.199-.53.464-.53h1.227c.298 0 .464.165.464.463v10.842c0 1.326.232 2.055.862 2.586.564.53 1.558.795 2.984.795 1.359 0 2.387-.298 3.05-.928.564-.53.763-1.127.763-2.453V10.863c0-.265.165-.43.397-.43h1.393c.232 0 .365.132.365.43v11.14c0 1.69-.498 2.95-1.459 3.78-.962.828-2.255 1.193-4.509 1.193-2.056 0-3.547-.398-4.509-1.194-.995-.828-1.492-2.088-1.492-3.78v-11.04Zm15.416 10.709c0-2.022.895-3.514 2.586-4.177.763-.299 2.089-.465 3.979-.465h.994c.829 0 1.558.034 2.221.1v-1.89c0-2.42-1.226-3.249-4.011-3.249-1.161 0-2.288.166-3.415.497-.497.133-.762.133-.862-.265l-.166-.696c-.132-.398-.033-.63.365-.73 1.426-.43 2.851-.663 4.244-.663 4.243 0 6 1.426 6 4.874v11.339c0 .265-.066.331-.364.331h-1.094c-.299 0-.431-.1-.431-.331l-.067-1.128h-.066c-.729 1.16-1.89 1.758-3.514 1.758h-1.658c-1.459 0-2.785-.431-3.547-1.194-.796-.796-1.194-1.824-1.194-3.117v-.994Zm2.193.729c0 1.028.232 1.724.696 2.155.431.398 1.094.597 2.022.597h1.36c2.221 0 3.514-1.194 3.514-3.448v-2.752c-.531-.066-1.194-.1-1.989-.1h-1.857c-1.392 0-2.354.233-2.918.664-.563.43-.828 1.16-.828 2.188v.696Z" fill="#5E5E5E"/></svg>