<svg width="14" height="14" fill="none" xmlns="http://www.w3.org/2000/svg"><path d="M8.793 8.987H5.176C2.448 8.987.22 11.05.001 13.664A.308.308 0 0 0 .313 14a.317.317 0 0 0 .312-.275c.187-2.323 2.15-4.127 4.551-4.127h3.632c2.4 0 4.365 1.819 4.567 4.112.016.152.14.275.312.275a.308.308 0 0 0 .312-.336c-.234-2.614-2.479-4.662-5.206-4.662Zm-1.809-1.85c2.011 0 3.632-1.604 3.632-3.56C10.616 1.62 8.996 0 6.984 0c-2.01 0-3.631 1.605-3.631 3.576 0 1.972 1.62 3.562 3.631 3.562Zm0-6.526c1.668 0 3.009 1.33 3.009 2.95 0 1.636-1.356 2.95-3.009 2.95-1.652 0-3.008-1.314-3.008-2.935 0-1.635 1.34-2.965 3.008-2.965Z" fill="#000"/></svg>