<svg width="15" height="15" fill="none" xmlns="http://www.w3.org/2000/svg"><path d="M13.665 14.296c-.11.098-.217.193-.313.285-.288.274-.777.419-1.415.419-1.874 0-5.022-1.22-7.834-3.947C2.413 9.383 1.117 7.436.45 5.57c-.61-1.71-.6-3.101.025-3.72.127-.125.265-.281.411-.447C1.437.778 2.124 0 3.004 0c.558 0 1.1.319 1.611.948 1.73 2.125 1.495 2.673.32 3.817l-.206.2c-.292.29.435 1.867 2.04 3.453 1.165 1.151 2.547 2.02 3.215 2.02.155 0 .204-.05.22-.065.074-.072.145-.144.215-.215.425-.432.864-.878 1.528-.878.597 0 1.272.374 2.123 1.178.634.598.938 1.176.93 1.766-.013.891-.746 1.546-1.335 2.072Zm-.071-3.345c-.705-.666-1.244-.99-1.647-.99-.355 0-.624.255-1.033.672-.073.074-.147.15-.224.224-.122.12-.344.262-.706.262-1.007 0-2.585-1.114-3.703-2.219-.739-.73-1.403-1.575-1.823-2.316-.557-.985-.63-1.692-.216-2.1l.209-.205c.941-.916 1.11-1.08-.373-2.904-.374-.46-.736-.693-1.074-.693-.567 0-1.114.62-1.597 1.168-.154.175-.3.34-.443.482-.334.33-.433 1.413.137 3.011.632 1.773 1.872 3.629 3.487 5.226 2.671 2.59 5.616 3.75 7.35 3.75.628 0 .863-.16.935-.228.101-.098.213-.198.33-.301.515-.46 1.099-.981 1.107-1.575.005-.385-.236-.81-.716-1.264Z" fill="#464646"/></svg>