<svg width="24" height="27" fill="none" xmlns="http://www.w3.org/2000/svg"><path fill-rule="evenodd" clip-rule="evenodd" d="m18.508 7.136-.038-.027c-.769-.794-1.674-1.171-2.716-1.118l-.037-.08.025-.014c.942-.229 1.5-.471 1.674-.74.05-.216-.012-.337-.223-.364-.471.067-.918.175-1.302.35.496-.35.682-.593.57-.714-.483.014-1.017.283-1.562.822.198-.377.285-.593.235-.62a3.693 3.693 0 0 0-.694.633c-.422.512-.757.983-1.017 1.414l-.013.027c-.657 1.172-1.128 2.343-1.401 3.542l-.1.094-.024.014a5.396 5.396 0 0 0-1.451-1.36c-.67-.485-1.464-.93-2.382-1.374a19.076 19.076 0 0 0-3.026-1.387c-.012 1.252.558 2.235 1.662 2.963v.013c-.384 0-.769.067-1.14.189.074 1.158.83 1.952 2.256 2.383l-.012.027c-.558-.04-1.017.175-1.377.62.472.996 1.303 1.467 2.506 1.44-.236.135-.422.27-.546.431a.966.966 0 0 0-.223.89c.26.511.719.74 1.401.7l.037.053-.012.027C8.4 17.29 6.973 17.883 5.31 17.762l-.024.013c-1.017-.013-2.109-.539-3.287-1.59 1.178 1.846 2.753 3.18 4.7 4.027 2.22.795 4.453.862 6.673.176h.037c2.158-.674 3.981-2.074 5.494-4.175.695-1.091 1.13-2.141 1.303-3.152 1.128.04 1.934-.31 2.443-1.063l-.012-.027c-.385.148-1.117.107-2.196-.135v-.135c1.191-.148 1.898-.565 2.121-1.252-.83.35-1.65.364-2.455.027-.15-1.212-.683-2.33-1.6-3.34" fill="#fff"/><mask id="a" style="mask-type:alpha" maskUnits="userSpaceOnUse" x="2" y="4" width="21" height="17"><path fill-rule="evenodd" clip-rule="evenodd" d="m18.508 7.136-.038-.027c-.769-.794-1.674-1.171-2.716-1.118l-.037-.08.025-.014c.942-.229 1.5-.471 1.674-.74.05-.216-.012-.337-.223-.364-.471.067-.918.175-1.302.35.496-.35.682-.593.57-.714-.483.014-1.017.283-1.562.822.198-.377.285-.593.235-.62a3.693 3.693 0 0 0-.694.633c-.422.512-.757.983-1.017 1.414l-.013.027c-.657 1.172-1.128 2.343-1.401 3.542l-.1.094-.024.014a5.396 5.396 0 0 0-1.451-1.36c-.67-.485-1.464-.93-2.382-1.374a19.076 19.076 0 0 0-3.026-1.387c-.012 1.252.558 2.235 1.662 2.963v.013c-.384 0-.769.067-1.14.189.074 1.158.83 1.952 2.256 2.383l-.012.027c-.558-.04-1.017.175-1.377.62.472.996 1.303 1.467 2.506 1.44-.236.135-.422.27-.546.431a.966.966 0 0 0-.223.89c.26.511.719.74 1.401.7l.037.053-.012.027C8.4 17.29 6.973 17.883 5.31 17.762l-.024.013c-1.017-.013-2.109-.539-3.287-1.59 1.178 1.846 2.753 3.18 4.7 4.027 2.22.795 4.453.862 6.673.176h.037c2.158-.674 3.981-2.074 5.494-4.175.695-1.091 1.13-2.141 1.303-3.152 1.128.04 1.934-.31 2.443-1.063l-.012-.027c-.385.148-1.117.107-2.196-.135v-.135c1.191-.148 1.898-.565 2.121-1.252-.83.35-1.65.364-2.455.027-.15-1.212-.683-2.33-1.6-3.34" fill="#fff"/></mask><g mask="url(#a)"><path fill="#fff" d="M0 .086h24v26.06H0z"/></g></svg>